<svg xmlns="http://www.w3.org/2000/svg" width="320" height="180" viewBox="0 0 320 180" preserveAspectRatio="xMidYMid slice">
  
  <g transform="scale(0.16666666666666666 0.16666666666666666)">
  
  <defs>
    <linearGradient id="ff5eb447-base" x1="0" y1="0" x2="1920" y2="1080">
      <stop stop-color="#042f2e"/>
      <stop offset="0.5" stop-color="#115e59" stop-opacity="0.95"/>
      <stop offset="1" stop-color="#115e59"/>
    </linearGradient>
    <radialGradient id="ff5eb447-glowL" cx="0" cy="0" r="1" gradientUnits="userSpaceOnUse" gradientTransform="translate(345.59999999999997 237.6) scale(672)">
      <stop stop-color="#14b8a6" stop-opacity="0.15"/>
      <stop offset="1" stop-opacity="0"/>
    </radialGradient>
    <radialGradient id="ff5eb447-glowR" cx="0" cy="0" r="1" gradientUnits="userSpaceOnUse" gradientTransform="translate(1574.3999999999999 777.6) scale(576)">
      <stop stop-color="#2dd4bf" stop-opacity="0.12"/>
      <stop offset="1" stop-opacity="0"/>
    </radialGradient>
  <filter id="ff5eb447-de" x="-30%" y="-80%" width="160%" height="260%">
    <feGaussianBlur in="SourceGraphic" stdDeviation="2.2" result="blur"/>
    <feMerge><feMergeNode in="blur"/><feMergeNode in="SourceGraphic"/></feMerge>
  </filter>
  </defs>
  <rect width="1920" height="1080" fill="url(#ff5eb447-base)"/>
  <rect width="1920" height="1080" fill="url(#ff5eb447-glowL)"/>
  <rect width="1920" height="1080" fill="url(#ff5eb447-glowR)"/>
  <defs>
    <filter id="ff5eb447-de" x="-30%" y="-80%" width="160%" height="260%">
    <feGaussianBlur in="SourceGraphic" stdDeviation="2.2" result="blur"/>
    <feMerge><feMergeNode in="blur"/><feMergeNode in="SourceGraphic"/></feMerge>
  </filter>
    <linearGradient id="ff5eb447-de-hdr-bg" x1="0" y1="0" x2="0" y2="1">
      <stop stop-color="#2dd4bf" stop-opacity="0.16"/>
      <stop offset="0.55" stop-color="#115e59" stop-opacity="0.08"/>
      <stop offset="1" stop-opacity="0"/>
    </linearGradient>
  </defs>
  <rect width="1920" height="104" fill="url(#ff5eb447-de-hdr-bg)"/>
  <line x1="0" y1="103" x2="1920" y2="103" stroke="#2dd4bf" stroke-width="1" opacity="0.4"/>
  <line x1="48" y1="103" x2="1872" y2="103" stroke="#2dd4bf" stroke-width="2.5" opacity="0.12"/>
  <g filter="url(#ff5eb447-de)" stroke="#2dd4bf" fill="none" stroke-linecap="square">
    <path d="M712 54.08 H594 V36.08 H502" stroke-width="1.3" opacity="0.9"/>
    <path d="M684 66.08 H562 V84.08 H472" stroke-width="1.1" opacity="0.75"/>
    <path d="M648 46.08 H534" stroke-width="1" stroke-dasharray="5 4" opacity="0.55"/>
    <path d="M616 76.08 H522 V62.08" stroke-width="0.9" opacity="0.65"/>
    <circle cx="502" cy="36.08" r="2.8" fill="#2dd4bf" stroke="none" opacity="0.95"/>
    <circle cx="472" cy="84.08" r="2.2" fill="#2dd4bf" stroke="none" opacity="0.85"/>
    <circle cx="594" cy="54.08" r="2" fill="#2dd4bf" stroke="none" opacity="0.7"/>
    <rect x="616" y="49.08" width="14" height="5" fill="#2dd4bf" opacity="0.55" stroke="none"/>
    <rect x="568" y="70.08" width="10" height="4" fill="#2dd4bf" opacity="0.4" stroke="none"/>
    <line x1="694" y1="32.08" x2="684" y2="40.08" stroke="#2dd4bf" stroke-width="0.7" opacity="0.45"/>
    <line x1="687" y1="37.08" x2="677" y2="45.08" stroke="#2dd4bf" stroke-width="0.7" opacity="0.45"/>
    <line x1="680" y1="42.08" x2="670" y2="50.08" stroke="#2dd4bf" stroke-width="0.7" opacity="0.45"/>
    <line x1="673" y1="47.08" x2="663" y2="55.08" stroke="#2dd4bf" stroke-width="0.7" opacity="0.45"/>
    <line x1="666" y1="52.08" x2="656" y2="60.08" stroke="#2dd4bf" stroke-width="0.7" opacity="0.45"/>
  </g>
  <g filter="url(#ff5eb447-de)" stroke="#2dd4bf" fill="none" stroke-linecap="square">
    <path d="M1208 54.08 H1326 V36.08 H1418" stroke-width="1.3" opacity="0.9"/>
    <path d="M1236 66.08 H1358 V84.08 H1448" stroke-width="1.1" opacity="0.75"/>
    <path d="M1272 46.08 H1386" stroke-width="1" stroke-dasharray="5 4" opacity="0.55"/>
    <path d="M1304 76.08 H1398 V62.08" stroke-width="0.9" opacity="0.65"/>
    <circle cx="1418" cy="36.08" r="2.8" fill="#2dd4bf" stroke="none" opacity="0.95"/>
    <circle cx="1448" cy="84.08" r="2.2" fill="#2dd4bf" stroke="none" opacity="0.85"/>
    <circle cx="1326" cy="54.08" r="2" fill="#2dd4bf" stroke="none" opacity="0.7"/>
    <rect x="1290" y="49.08" width="14" height="5" fill="#2dd4bf" opacity="0.55" stroke="none"/>
    <rect x="1338" y="70.08" width="10" height="4" fill="#2dd4bf" opacity="0.4" stroke="none"/>
    <line x1="1226" y1="32.08" x2="1236" y2="40.08" stroke="#2dd4bf" stroke-width="0.7" opacity="0.45"/>
    <line x1="1233" y1="37.08" x2="1243" y2="45.08" stroke="#2dd4bf" stroke-width="0.7" opacity="0.45"/>
    <line x1="1240" y1="42.08" x2="1250" y2="50.08" stroke="#2dd4bf" stroke-width="0.7" opacity="0.45"/>
    <line x1="1247" y1="47.08" x2="1257" y2="55.08" stroke="#2dd4bf" stroke-width="0.7" opacity="0.45"/>
    <line x1="1254" y1="52.08" x2="1264" y2="60.08" stroke="#2dd4bf" stroke-width="0.7" opacity="0.45"/>
  </g>
  <g filter="url(#ff5eb447-de)">
    <polygon points="752,10 1168,10 1210,84 710,84"
      fill="#2dd4bf" fill-opacity="0.09" stroke="#2dd4bf" stroke-width="1.8"/>
    <line x1="752" y1="10" x2="743" y2="20" stroke="#2dd4bf" stroke-width="0.75" opacity="0.5"/>
    <line x1="747" y1="16" x2="738" y2="26" stroke="#2dd4bf" stroke-width="0.75" opacity="0.5"/>
    <line x1="742" y1="22" x2="733" y2="32" stroke="#2dd4bf" stroke-width="0.75" opacity="0.5"/>
    <line x1="737" y1="28" x2="728" y2="38" stroke="#2dd4bf" stroke-width="0.75" opacity="0.5"/>
    <line x1="732" y1="34" x2="723" y2="44" stroke="#2dd4bf" stroke-width="0.75" opacity="0.5"/>
    <line x1="727" y1="40" x2="718" y2="50" stroke="#2dd4bf" stroke-width="0.75" opacity="0.5"/>
    <line x1="1168" y1="10" x2="1177" y2="20" stroke="#2dd4bf" stroke-width="0.75" opacity="0.5"/>
    <line x1="1173" y1="16" x2="1182" y2="26" stroke="#2dd4bf" stroke-width="0.75" opacity="0.5"/>
    <line x1="1178" y1="22" x2="1187" y2="32" stroke="#2dd4bf" stroke-width="0.75" opacity="0.5"/>
    <line x1="1183" y1="28" x2="1192" y2="38" stroke="#2dd4bf" stroke-width="0.75" opacity="0.5"/>
    <line x1="1188" y1="34" x2="1197" y2="44" stroke="#2dd4bf" stroke-width="0.75" opacity="0.5"/>
    <line x1="1193" y1="40" x2="1202" y2="50" stroke="#2dd4bf" stroke-width="0.75" opacity="0.5"/>
    <line x1="932" y1="79" x2="988" y2="79" stroke="#ffffff" stroke-width="2.2" opacity="0.92"/>
    <line x1="948" y1="79" x2="972" y2="79" stroke="#2dd4bf" stroke-width="1" opacity="0.9"/>
  </g>
  <path d="M948 54.08 Q954 51.08 960 54.08 Q966 57.08 972 54.08" fill="none" stroke="#2dd4bf" stroke-width="1" opacity="0.2"/>
  <g opacity="0.5" stroke="#2dd4bf" stroke-width="2" fill="none">
  <path d="M20 176 V120 H76"/>
  <path d="M1844 120 H1900 V176"/>
  <path d="M1900 1004 V1060 H1844"/>
  <path d="M76 1060 H20 V1004"/>
</g>
  <rect x="0" y="80" width="3" height="920" fill="#2dd4bf" opacity="0.22"/>
  <rect x="1917" y="80" width="3" height="920" fill="#2dd4bf" opacity="0.22"/>
  <rect x="12" y="120" width="1" height="840" fill="#2dd4bf" opacity="0.11"/>
  <rect x="1907" y="120" width="1" height="840" fill="#2dd4bf" opacity="0.11"/>
  <rect x="48" y="132" width="1824" height="900" fill="none" stroke="#2dd4bf" stroke-width="0.6" opacity="0.12" rx="2"/>
  <line x1="48" y1="224" x2="1872" y2="224" stroke="#2dd4bf" stroke-width="0.5" opacity="0.08"/>
  <line x1="80" y1="100" x2="599" y2="391" stroke="#2dd4bf" stroke-width="0.5" opacity="0.12"/>
  <line x1="426" y1="294" x2="945" y2="585" stroke="#2dd4bf" stroke-width="0.5" opacity="0.12"/>
  <line x1="772" y1="488" x2="1291" y2="779" stroke="#2dd4bf" stroke-width="0.5" opacity="0.12"/>
  <line x1="1118" y1="682" x2="1637" y2="973" stroke="#2dd4bf" stroke-width="0.5" opacity="0.12"/>
  <line x1="1464" y1="876" x2="223" y2="287" stroke="#2dd4bf" stroke-width="0.5" opacity="0.12"/>
  <line x1="1810" y1="190" x2="569" y2="481" stroke="#2dd4bf" stroke-width="0.5" opacity="0.12"/>
  <line x1="396" y1="384" x2="915" y2="675" stroke="#2dd4bf" stroke-width="0.5" opacity="0.12"/>
  <line x1="742" y1="578" x2="1261" y2="869" stroke="#2dd4bf" stroke-width="0.5" opacity="0.12"/>
  <line x1="1088" y1="772" x2="1607" y2="183" stroke="#2dd4bf" stroke-width="0.5" opacity="0.12"/>
  <line x1="1434" y1="966" x2="193" y2="377" stroke="#2dd4bf" stroke-width="0.5" opacity="0.12"/>
  <line x1="1780" y1="280" x2="539" y2="571" stroke="#2dd4bf" stroke-width="0.5" opacity="0.12"/>
  <line x1="366" y1="474" x2="885" y2="765" stroke="#2dd4bf" stroke-width="0.5" opacity="0.12"/>
  <line x1="712" y1="668" x2="253" y2="197" stroke="#2dd4bf" stroke-width="0.5" opacity="0.12"/>
  <circle cx="80" cy="100" r="2" fill="#2dd4bf" opacity="0.2"/>
  <circle cx="253" cy="197" r="2" fill="#2dd4bf" opacity="0.2"/>
  <circle cx="426" cy="294" r="2" fill="#2dd4bf" opacity="0.2"/>
  <circle cx="599" cy="391" r="2" fill="#2dd4bf" opacity="0.2"/>
  <circle cx="772" cy="488" r="2" fill="#2dd4bf" opacity="0.2"/>
  <circle cx="945" cy="585" r="2" fill="#2dd4bf" opacity="0.2"/>
  <circle cx="1118" cy="682" r="2" fill="#2dd4bf" opacity="0.2"/>
  <circle cx="1291" cy="779" r="2" fill="#2dd4bf" opacity="0.2"/>
  <circle cx="1464" cy="876" r="2" fill="#2dd4bf" opacity="0.2"/>
  <circle cx="1637" cy="973" r="2" fill="#2dd4bf" opacity="0.2"/>
  <circle cx="1810" cy="190" r="2" fill="#2dd4bf" opacity="0.2"/>
  <circle cx="223" cy="287" r="2" fill="#2dd4bf" opacity="0.2"/>
  <circle cx="396" cy="384" r="2" fill="#2dd4bf" opacity="0.2"/>
  <circle cx="569" cy="481" r="2" fill="#2dd4bf" opacity="0.2"/>
  <circle cx="742" cy="578" r="2" fill="#2dd4bf" opacity="0.2"/>
  <circle cx="915" cy="675" r="2" fill="#2dd4bf" opacity="0.2"/>
  <circle cx="1088" cy="772" r="2" fill="#2dd4bf" opacity="0.2"/>
  <circle cx="1261" cy="869" r="2" fill="#2dd4bf" opacity="0.2"/>
  <circle cx="1434" cy="966" r="2" fill="#2dd4bf" opacity="0.2"/>
  <circle cx="1607" cy="183" r="2" fill="#2dd4bf" opacity="0.2"/>
  <circle cx="1780" cy="280" r="2" fill="#2dd4bf" opacity="0.2"/>
  <circle cx="193" cy="377" r="2" fill="#2dd4bf" opacity="0.2"/>
  <circle cx="366" cy="474" r="2" fill="#2dd4bf" opacity="0.2"/>
  <circle cx="539" cy="571" r="2" fill="#2dd4bf" opacity="0.2"/>
  <circle cx="712" cy="668" r="2" fill="#2dd4bf" opacity="0.2"/>
  <circle cx="885" cy="765" r="2" fill="#2dd4bf" opacity="0.2"/>
  <path d="M140 410.4 Q160 400.4 180 410.4 Q200 420.4 220 410.4" fill="none" stroke="#2dd4bf" stroke-width="1" opacity="0.22"/>
  <path d="M660 410.4 Q680 400.4 700 410.4 Q720 420.4 740 410.4" fill="none" stroke="#2dd4bf" stroke-width="1" opacity="0.22"/>
  <path d="M1180 410.4 Q1200 400.4 1220 410.4 Q1240 420.4 1260 410.4" fill="none" stroke="#2dd4bf" stroke-width="1" opacity="0.22"/>

  </g>
</svg>