<svg xmlns="http://www.w3.org/2000/svg" width="1920" height="1080" viewBox="0 0 1920 1080" preserveAspectRatio="xMidYMid slice">
  <defs>
    <linearGradient id="5c69a19c-base" x1="0" y1="0" x2="1920" y2="1080">
      <stop stop-color="#041016"/>
      <stop offset="0.5" stop-color="#0c4a6e" stop-opacity="0.95"/>
      <stop offset="1" stop-color="#0c4a6e"/>
    </linearGradient>
    <radialGradient id="5c69a19c-glowL" cx="0" cy="0" r="1" gradientUnits="userSpaceOnUse" gradientTransform="translate(345.59999999999997 237.6) scale(672)">
      <stop stop-color="#22d3ee" stop-opacity="0.18"/>
      <stop offset="1" stop-opacity="0"/>
    </radialGradient>
    <radialGradient id="5c69a19c-glowR" cx="0" cy="0" r="1" gradientUnits="userSpaceOnUse" gradientTransform="translate(1574.3999999999999 777.6) scale(576)">
      <stop stop-color="#22d3ee" stop-opacity="0.144"/>
      <stop offset="1" stop-opacity="0"/>
    </radialGradient>
  </defs>
  <rect width="1920" height="1080" fill="url(#5c69a19c-base)"/>
  <rect width="1920" height="1080" fill="url(#5c69a19c-glowL)"/>
  <rect width="1920" height="1080" fill="url(#5c69a19c-glowR)"/>
  <circle cx="960" cy="518.4" r="160" fill="none" stroke="#22d3ee" stroke-width="0.8" opacity="0.15"/>
  <circle cx="960" cy="518.4" r="104" fill="none" stroke="#22d3ee" stroke-width="0.5" opacity="0.1" stroke-dasharray="4 6"/>
  <line x1="800" y1="518.4" x2="1120" y2="518.4" stroke="#22d3ee" stroke-width="0.4" opacity="0.12"/>
  <line x1="960" y1="358.4" x2="960" y2="678.4" stroke="#22d3ee" stroke-width="0.4" opacity="0.12"/>
  <circle cx="960" cy="518.4" r="260" fill="none" stroke="#22d3ee" stroke-width="0.8" opacity="0.15"/>
  <circle cx="960" cy="518.4" r="169" fill="none" stroke="#22d3ee" stroke-width="0.5" opacity="0.1" stroke-dasharray="4 6"/>
  <line x1="700" y1="518.4" x2="1220" y2="518.4" stroke="#22d3ee" stroke-width="0.4" opacity="0.12"/>
  <line x1="960" y1="258.4" x2="960" y2="778.4" stroke="#22d3ee" stroke-width="0.4" opacity="0.12"/>
  <circle cx="960" cy="518.4" r="360" fill="none" stroke="#22d3ee" stroke-width="0.8" opacity="0.15"/>
  <circle cx="960" cy="518.4" r="234" fill="none" stroke="#22d3ee" stroke-width="0.5" opacity="0.1" stroke-dasharray="4 6"/>
  <line x1="600" y1="518.4" x2="1320" y2="518.4" stroke="#22d3ee" stroke-width="0.4" opacity="0.12"/>
  <line x1="960" y1="158.39999999999998" x2="960" y2="878.4" stroke="#22d3ee" stroke-width="0.4" opacity="0.12"/>
  <g opacity="0.4" stroke="#22d3ee" stroke-width="1.5" fill="none">
  <path d="M20 60 V20 H60"/>
  <path d="M1860 20 H1900 V60"/>
  <path d="M1900 1020 V1060 H1860"/>
  <path d="M60 1060 H20 V1020"/>
</g>
  <polygon points="1022.3538290724796,482.4 1022.3538290724796,554.4 960,590.4 897.6461709275204,554.4 897.6461709275204,482.4 959.9999999999999,446.4" fill="none" stroke="#22d3ee" stroke-width="1.2" opacity="0.1"/>
  <circle cx="960" cy="518.4" r="18" fill="#22d3ee" opacity="0.06"/>
</svg>