<svg xmlns="http://www.w3.org/2000/svg" width="1920" height="1080" viewBox="0 0 1920 1080" preserveAspectRatio="xMidYMid slice">
  <defs>
    <linearGradient id="fd9e24a7-base" x1="0" y1="0" x2="1920" y2="1080">
      <stop stop-color="#0f172a"/>
      <stop offset="0.5" stop-color="#1e1b4b" stop-opacity="0.95"/>
      <stop offset="1" stop-color="#1e1b4b"/>
    </linearGradient>
    <radialGradient id="fd9e24a7-glowL" cx="0" cy="0" r="1" gradientUnits="userSpaceOnUse" gradientTransform="translate(345.59999999999997 237.6) scale(672)">
      <stop stop-color="#818cf8" stop-opacity="0.16"/>
      <stop offset="1" stop-opacity="0"/>
    </radialGradient>
    <radialGradient id="fd9e24a7-glowR" cx="0" cy="0" r="1" gradientUnits="userSpaceOnUse" gradientTransform="translate(1574.3999999999999 777.6) scale(576)">
      <stop stop-color="#6366f1" stop-opacity="0.128"/>
      <stop offset="1" stop-opacity="0"/>
    </radialGradient>
  <pattern id="fd9e24a7-pat" width="42" height="48.49742261192856" patternUnits="userSpaceOnUse">
    <path d="M14 0 L28 0 L35 12.12435565298214 L28 24.24871130596428 L14 24.24871130596428 L7 12.12435565298214 Z" fill="none" stroke="#6366f1" stroke-width="0.6" opacity="0.08"/>
    <path d="M35 36.373066958946424 L49 36.373066958946424 L56 48.49742261192856 L49 60.6217782649107 L35 60.6217782649107 L28 48.49742261192856 Z" fill="none" stroke="#6366f1" stroke-width="0.6" opacity="0.08"/>
  </pattern>
  </defs>
  <rect width="1920" height="1080" fill="url(#fd9e24a7-base)"/>
  <rect width="1920" height="1080" fill="url(#fd9e24a7-glowL)"/>
  <rect width="1920" height="1080" fill="url(#fd9e24a7-glowR)"/>
  <defs>
    <linearGradient id="fd9e24a7-hdr" x1="0" y1="0" x2="0" y2="1">
      <stop stop-color="#6366f1" stop-opacity="0.22"/>
      <stop offset="1" stop-opacity="0"/>
    </linearGradient>
  </defs>
  <rect width="1920" height="72" fill="url(#fd9e24a7-hdr)"/>
  <line x1="0" y1="72" x2="1920" y2="72" stroke="#6366f1" stroke-width="1" opacity="0.35"/>
  <line x1="48" y1="72" x2="1872" y2="72" stroke="#6366f1" stroke-width="2" opacity="0.15"/>
  <path d="M160 26 L170 36 L160 46 L150 36 Z" fill="none" stroke="#6366f1" stroke-width="1.2" opacity="0.35"/>
  <circle cx="160" cy="36" r="2" fill="#6366f1" opacity="0.35"/>
  <path d="M216 26 L226 36 L216 46 L206 36 Z" fill="none" stroke="#6366f1" stroke-width="1.2" opacity="0.35"/>
  <circle cx="216" cy="36" r="2" fill="#6366f1" opacity="0.35"/>
  <path d="M272 26 L282 36 L272 46 L262 36 Z" fill="none" stroke="#6366f1" stroke-width="1.2" opacity="0.35"/>
  <circle cx="272" cy="36" r="2" fill="#6366f1" opacity="0.35"/>
  <path d="M328 26 L338 36 L328 46 L318 36 Z" fill="none" stroke="#6366f1" stroke-width="1.2" opacity="0.35"/>
  <circle cx="328" cy="36" r="2" fill="#6366f1" opacity="0.35"/>
  <path d="M384 26 L394 36 L384 46 L374 36 Z" fill="none" stroke="#6366f1" stroke-width="1.2" opacity="0.35"/>
  <circle cx="384" cy="36" r="2" fill="#6366f1" opacity="0.35"/>
  <path d="M440 26 L450 36 L440 46 L430 36 Z" fill="none" stroke="#6366f1" stroke-width="1.2" opacity="0.35"/>
  <circle cx="440" cy="36" r="2" fill="#6366f1" opacity="0.35"/>
  <path d="M496 26 L506 36 L496 46 L486 36 Z" fill="none" stroke="#6366f1" stroke-width="1.2" opacity="0.35"/>
  <circle cx="496" cy="36" r="2" fill="#6366f1" opacity="0.35"/>
  <g opacity="0.6" stroke="#6366f1" stroke-width="2.5" fill="none">
  <path d="M24 88 V24 H88"/>
  <path d="M1832 24 H1896 V88"/>
  <path d="M1896 992 V1056 H1832"/>
  <path d="M88 1056 H24 V992"/>
</g>
  <rect x="0" y="80" width="3" height="920" fill="#6366f1" opacity="0.2"/>
  <rect x="1917" y="80" width="3" height="920" fill="#6366f1" opacity="0.2"/>
  <rect x="12" y="120" width="1" height="840" fill="#6366f1" opacity="0.1"/>
  <rect x="1907" y="120" width="1" height="840" fill="#6366f1" opacity="0.1"/>
  <rect y="72" width="1920" height="1008" fill="url(#fd9e24a7-pat)"/>
  <path d="M960 438.4 L1040 518.4 L960 598.4 L880 518.4 Z" fill="none" stroke="#6366f1" stroke-width="1.2" opacity="0.12"/>
  <circle cx="960" cy="518.4" r="2" fill="#6366f1" opacity="0.12"/>
  <path d="M120 142 L138 160 L120 178 L102 160 Z" fill="none" stroke="#6366f1" stroke-width="1.2" opacity="0.25"/>
  <circle cx="120" cy="160" r="2" fill="#6366f1" opacity="0.25"/>
  <path d="M1800 142 L1818 160 L1800 178 L1782 160 Z" fill="none" stroke="#6366f1" stroke-width="1.2" opacity="0.25"/>
  <circle cx="1800" cy="160" r="2" fill="#6366f1" opacity="0.25"/>
  <path d="M120 942 L138 960 L120 978 L102 960 Z" fill="none" stroke="#6366f1" stroke-width="1.2" opacity="0.25"/>
  <circle cx="120" cy="960" r="2" fill="#6366f1" opacity="0.25"/>
  <path d="M1800 942 L1818 960 L1800 978 L1782 960 Z" fill="none" stroke="#6366f1" stroke-width="1.2" opacity="0.25"/>
  <circle cx="1800" cy="960" r="2" fill="#6366f1" opacity="0.25"/>
</svg>