<svg xmlns="http://www.w3.org/2000/svg" width="1920" height="1080" viewBox="0 0 1920 1080" preserveAspectRatio="xMidYMid slice">
  <defs>
    <linearGradient id="e93febd2-base" x1="0" y1="0" x2="1920" y2="1080">
      <stop stop-color="#0a1408"/>
      <stop offset="0.5" stop-color="#365314" stop-opacity="0.95"/>
      <stop offset="1" stop-color="#365314"/>
    </linearGradient>
    <radialGradient id="e93febd2-glowL" cx="0" cy="0" r="1" gradientUnits="userSpaceOnUse" gradientTransform="translate(345.59999999999997 237.6) scale(672)">
      <stop stop-color="#84cc16" stop-opacity="0.13"/>
      <stop offset="1" stop-opacity="0"/>
    </radialGradient>
    <radialGradient id="e93febd2-glowR" cx="0" cy="0" r="1" gradientUnits="userSpaceOnUse" gradientTransform="translate(1574.3999999999999 777.6) scale(576)">
      <stop stop-color="#a3e635" stop-opacity="0.10400000000000001"/>
      <stop offset="1" stop-opacity="0"/>
    </radialGradient>
  <pattern id="e93febd2-pat" width="42" height="48.49742261192856" patternUnits="userSpaceOnUse">
    <path d="M14 0 L28 0 L35 12.12435565298214 L28 24.24871130596428 L14 24.24871130596428 L7 12.12435565298214 Z" fill="none" stroke="#a3e635" stroke-width="0.6" opacity="0.08"/>
    <path d="M35 36.373066958946424 L49 36.373066958946424 L56 48.49742261192856 L49 60.6217782649107 L35 60.6217782649107 L28 48.49742261192856 Z" fill="none" stroke="#a3e635" stroke-width="0.6" opacity="0.08"/>
  </pattern>
  </defs>
  <rect width="1920" height="1080" fill="url(#e93febd2-base)"/>
  <rect width="1920" height="1080" fill="url(#e93febd2-glowL)"/>
  <rect width="1920" height="1080" fill="url(#e93febd2-glowR)"/>
  <defs>
    <linearGradient id="e93febd2-hdr" x1="0" y1="0" x2="0" y2="1">
      <stop stop-color="#a3e635" stop-opacity="0.22"/>
      <stop offset="1" stop-opacity="0"/>
    </linearGradient>
  </defs>
  <rect width="1920" height="72" fill="url(#e93febd2-hdr)"/>
  <line x1="0" y1="72" x2="1920" y2="72" stroke="#a3e635" stroke-width="1" opacity="0.35"/>
  <line x1="48" y1="72" x2="1872" y2="72" stroke="#a3e635" stroke-width="2" opacity="0.15"/>
  <path d="M160 26 Q170 36 160 46 Q150 36 160 26" fill="none" stroke="#a3e635" stroke-width="1" opacity="0.35"/>
  <line x1="160" y1="26" x2="160" y2="46" stroke="#a3e635" stroke-width="0.6" opacity="0.21"/>
  <path d="M216 26 Q226 36 216 46 Q206 36 216 26" fill="none" stroke="#a3e635" stroke-width="1" opacity="0.35"/>
  <line x1="216" y1="26" x2="216" y2="46" stroke="#a3e635" stroke-width="0.6" opacity="0.21"/>
  <path d="M272 26 Q282 36 272 46 Q262 36 272 26" fill="none" stroke="#a3e635" stroke-width="1" opacity="0.35"/>
  <line x1="272" y1="26" x2="272" y2="46" stroke="#a3e635" stroke-width="0.6" opacity="0.21"/>
  <path d="M328 26 Q338 36 328 46 Q318 36 328 26" fill="none" stroke="#a3e635" stroke-width="1" opacity="0.35"/>
  <line x1="328" y1="26" x2="328" y2="46" stroke="#a3e635" stroke-width="0.6" opacity="0.21"/>
  <path d="M384 26 Q394 36 384 46 Q374 36 384 26" fill="none" stroke="#a3e635" stroke-width="1" opacity="0.35"/>
  <line x1="384" y1="26" x2="384" y2="46" stroke="#a3e635" stroke-width="0.6" opacity="0.21"/>
  <path d="M440 26 Q450 36 440 46 Q430 36 440 26" fill="none" stroke="#a3e635" stroke-width="1" opacity="0.35"/>
  <line x1="440" y1="26" x2="440" y2="46" stroke="#a3e635" stroke-width="0.6" opacity="0.21"/>
  <path d="M496 26 Q506 36 496 46 Q486 36 496 26" fill="none" stroke="#a3e635" stroke-width="1" opacity="0.35"/>
  <line x1="496" y1="26" x2="496" y2="46" stroke="#a3e635" stroke-width="0.6" opacity="0.21"/>
  <g opacity="0.6" stroke="#a3e635" stroke-width="2.5" fill="none">
  <path d="M24 88 V24 H88"/>
  <path d="M1832 24 H1896 V88"/>
  <path d="M1896 992 V1056 H1832"/>
  <path d="M88 1056 H24 V992"/>
</g>
  <rect x="0" y="80" width="3" height="920" fill="#a3e635" opacity="0.2"/>
  <rect x="1917" y="80" width="3" height="920" fill="#a3e635" opacity="0.2"/>
  <rect x="12" y="120" width="1" height="840" fill="#a3e635" opacity="0.1"/>
  <rect x="1907" y="120" width="1" height="840" fill="#a3e635" opacity="0.1"/>
  <rect y="72" width="1920" height="1008" fill="url(#e93febd2-pat)"/>
  <path d="M960 438.4 Q1040 518.4 960 598.4 Q880 518.4 960 438.4" fill="none" stroke="#a3e635" stroke-width="1" opacity="0.12"/>
  <line x1="960" y1="438.4" x2="960" y2="598.4" stroke="#a3e635" stroke-width="0.6" opacity="0.072"/>
  <path d="M120 142 Q138 160 120 178 Q102 160 120 142" fill="none" stroke="#a3e635" stroke-width="1" opacity="0.25"/>
  <line x1="120" y1="142" x2="120" y2="178" stroke="#a3e635" stroke-width="0.6" opacity="0.15"/>
  <path d="M1800 142 Q1818 160 1800 178 Q1782 160 1800 142" fill="none" stroke="#a3e635" stroke-width="1" opacity="0.25"/>
  <line x1="1800" y1="142" x2="1800" y2="178" stroke="#a3e635" stroke-width="0.6" opacity="0.15"/>
  <path d="M120 942 Q138 960 120 978 Q102 960 120 942" fill="none" stroke="#a3e635" stroke-width="1" opacity="0.25"/>
  <line x1="120" y1="942" x2="120" y2="978" stroke="#a3e635" stroke-width="0.6" opacity="0.15"/>
  <path d="M1800 942 Q1818 960 1800 978 Q1782 960 1800 942" fill="none" stroke="#a3e635" stroke-width="1" opacity="0.25"/>
  <line x1="1800" y1="942" x2="1800" y2="978" stroke="#a3e635" stroke-width="0.6" opacity="0.15"/>
</svg>