<svg xmlns="http://www.w3.org/2000/svg" width="1920" height="1080" viewBox="0 0 1920 1080" preserveAspectRatio="xMidYMid slice">
  <defs>
    <linearGradient id="1957ac19-base" x1="0" y1="0" x2="1920" y2="1080">
      <stop stop-color="#e7e8ea"/>
      <stop offset="0.32" stop-color="#b4b5c0"/>
      <stop offset="0.68" stop-color="#c8c7d8"/>
      <stop offset="1" stop-color="#9e9dc2"/>
    </linearGradient>
    <radialGradient id="1957ac19-glowL" cx="0" cy="0" r="1" gradientUnits="userSpaceOnUse" gradientTransform="translate(345.59999999999997 237.6) scale(729.6)">
      <stop stop-color="#818cf8" stop-opacity="0.32"/>
      <stop offset="0.55" stop-color="#32387e" stop-opacity="0.20800000000000002"/>
      <stop offset="1" stop-opacity="0"/>
    </radialGradient>
    <radialGradient id="1957ac19-glowR" cx="0" cy="0" r="1" gradientUnits="userSpaceOnUse" gradientTransform="translate(1574.3999999999999 777.6) scale(614.4)">
      <stop stop-color="#6366f1" stop-opacity="0.272"/>
      <stop offset="1" stop-opacity="0"/>
    </radialGradient>
  </defs>
  <rect width="1920" height="1080" fill="url(#1957ac19-base)"/>
  <rect width="1920" height="1080" fill="url(#1957ac19-glowL)"/>
  <rect width="1920" height="1080" fill="url(#1957ac19-glowR)"/>
  <circle cx="960" cy="518.4" r="160" fill="none" stroke="#6366f1" stroke-width="0.8" opacity="0.32"/>
  <circle cx="960" cy="518.4" r="104" fill="none" stroke="#6366f1" stroke-width="0.5" opacity="0.28" stroke-dasharray="4 6"/>
  <line x1="800" y1="518.4" x2="1120" y2="518.4" stroke="#6366f1" stroke-width="0.4" opacity="0.25"/>
  <line x1="960" y1="358.4" x2="960" y2="678.4" stroke="#6366f1" stroke-width="0.4" opacity="0.25"/>
  <circle cx="960" cy="518.4" r="260" fill="none" stroke="#6366f1" stroke-width="0.8" opacity="0.32"/>
  <circle cx="960" cy="518.4" r="169" fill="none" stroke="#6366f1" stroke-width="0.5" opacity="0.28" stroke-dasharray="4 6"/>
  <line x1="700" y1="518.4" x2="1220" y2="518.4" stroke="#6366f1" stroke-width="0.4" opacity="0.25"/>
  <line x1="960" y1="258.4" x2="960" y2="778.4" stroke="#6366f1" stroke-width="0.4" opacity="0.25"/>
  <circle cx="960" cy="518.4" r="360" fill="none" stroke="#6366f1" stroke-width="0.8" opacity="0.32"/>
  <circle cx="960" cy="518.4" r="234" fill="none" stroke="#6366f1" stroke-width="0.5" opacity="0.28" stroke-dasharray="4 6"/>
  <line x1="600" y1="518.4" x2="1320" y2="518.4" stroke="#6366f1" stroke-width="0.4" opacity="0.25"/>
  <line x1="960" y1="158.39999999999998" x2="960" y2="878.4" stroke="#6366f1" stroke-width="0.4" opacity="0.25"/>
  <g opacity="0.62" stroke="#6366f1" stroke-width="1.5" fill="none">
  <path d="M20 60 V20 H60"/>
  <path d="M1860 20 H1900 V60"/>
  <path d="M1900 1020 V1060 H1860"/>
  <path d="M60 1060 H20 V1020"/>
</g>
  <path d="M960 446.4 L1032 518.4 L960 590.4 L888 518.4 Z" fill="none" stroke="#6366f1" stroke-width="1.2" opacity="0.28"/>
  <circle cx="960" cy="518.4" r="2" fill="#6366f1" opacity="0.28"/>
</svg>