<svg xmlns="http://www.w3.org/2000/svg" width="800" height="480" viewBox="0 0 800 480" preserveAspectRatio="none meet">
  <defs>
    <linearGradient id="36a8d99f-fade" x1="0" y1="0" x2="0" y2="1">
      <stop stop-color="#334155" stop-opacity="0.25"/>
      <stop offset="1" stop-opacity="0"/>
    </linearGradient>
  </defs>
  <rect width="800" height="480" fill="#0f1419" fill-opacity="0.88"/>
  <path d="M16 8 H784 L792 16 V464 L784 472 H16 L8 464 V16 Z" fill="none" stroke="#94a3b8" stroke-width="1.5" opacity="0.7"/>
  <path d="M32 20 H752 V32 H48 V432 H752 V448 H32 V20 Z" fill="none" stroke="#94a3b8" stroke-width="0.6" opacity="0.25"/>
  <g opacity="0.8" stroke="#94a3b8" stroke-width="2" fill="none">
  <path d="M8 36 V8 H36"/>
  <path d="M764 8 H792 V36"/>
  <path d="M792 444 V472 H764"/>
  <path d="M36 472 H8 V444"/>
</g>
  <polygon points="50.23538290724796,24.400000000000002 50.23538290724796,31.599999999999998 44,35.2 37.76461709275204,31.599999999999998 37.76461709275204,24.400000000000002 43.99999999999999,20.8" fill="none" stroke="#94a3b8" stroke-width="1.2" opacity="0.5"/>
  <circle cx="44" cy="28" r="1.7999999999999998" fill="#94a3b8" opacity="0.3"/><circle cx="32" cy="28" r="1.5" fill="#94a3b8" opacity="0.5"/><circle cx="56" cy="28" r="1.5" fill="#94a3b8" opacity="0.5"/>
  <rect x="68" y="16" width="120" height="24" fill="#94a3b8" fill-opacity="0.08" rx="2"/>
  <rect width="800" height="480" fill="url(#36a8d99f-fade)" pointer-events="none"/>
</svg>